<?xml version="1.0" encoding="UTF-8"?>
<svg version="1.1" xmlns="http://www.w3.org/2000/svg" width="512" height="512">
<path d="M0 0 C1.53696533 0.30599121 1.53696533 0.30599121 3.10498047 0.61816406 C38.58716681 7.8375516 74.4852277 21.28675053 103.28515625 43.78515625 C104.92173678 45.19268964 104.92173678 45.19268964 107 45 C108.41261529 43.37898212 108.41261529 43.37898212 109.8125 41.3125 C112.31073571 37.8789345 114.87496175 34.89637691 118 32 C118.50015625 31.51789062 119.0003125 31.03578125 119.515625 30.5390625 C130.99957443 19.96738943 145.12521812 17.19840121 160.265625 17.65234375 C175.20380596 18.49058842 187.73476042 25.31421057 198 36 C210.28624089 50.41223026 212.21751921 66.81883324 211 85 C210.23133073 89.38048873 208.97266739 93.02548376 207 97 C206.50242187 98.01191406 206.00484375 99.02382812 205.4921875 100.06640625 C200.07040306 110.14083827 192.30180891 118.73630201 182 124 C180.33857106 124.3585286 178.67208035 124.69498163 177 125 C177.28609131 125.51570557 177.57218262 126.03141113 177.86694336 126.56274414 C191.21267203 150.81632133 200.75443388 176.284059 206.3125 203.4375 C206.45985596 204.15639404 206.60721191 204.87528809 206.7590332 205.6159668 C209.73289088 221.26225609 210.37300362 236.73568046 210.3125 252.625 C210.31034485 253.64290619 210.3081897 254.66081238 210.30596924 255.70956421 C210.25629854 270.31863523 210.00540191 284.65075853 207 299 C206.70198486 300.46228027 206.70198486 300.46228027 206.39794922 301.95410156 C202.87481305 318.79653981 198.51402744 336.28769727 191.19921875 351.9296875 C189.84906034 354.76765685 189.84906034 354.76765685 190.1015625 357.03515625 C191.41203279 359.90109779 192.88189056 362.66233246 194.375 365.4375 C202.04964376 380.32384769 202.72380039 395.02138732 198 411 C194.6496026 419.81627008 189.67876483 426.41563467 183 433 C182.15308594 433.86238281 182.15308594 433.86238281 181.2890625 434.7421875 C170.33684816 445.05329661 155.59388707 448.17741171 141 448 C136.28916392 447.53562404 131.39670092 447.04204388 127.0234375 445.140625 C124.74450359 444.76708272 124.74450359 444.76708272 122.3984375 446.8515625 C121.38215793 447.76672566 120.37500821 448.69208449 119.375 449.625 C105.21656468 462.14367394 89.66888187 472.15257531 73 481 C72.17725586 481.43940918 71.35451172 481.87881836 70.50683594 482.33154297 C48.6023462 493.85080967 24.304293 501.53481418 0 506 C-0.80598633 506.16081055 -1.61197266 506.32162109 -2.44238281 506.48730469 C-30.2038564 511.87518572 -63.31784815 511.76215355 -91 506 C-91.97630371 505.80132324 -92.95260742 505.60264648 -93.95849609 505.39794922 C-110.26146205 501.98712653 -128.09636325 498.10085062 -143.00120544 490.46182251 C-147.78181232 488.41943215 -152.45369899 488.59038417 -157.58178711 488.63110352 C-158.62334457 488.62733704 -159.66490204 488.62357056 -160.73802185 488.61968994 C-162.99092142 488.61327317 -165.24384808 488.61357271 -167.49674797 488.61987495 C-171.06601361 488.62900517 -174.63475618 488.61873879 -178.20399475 488.60325623 C-188.34879775 488.56320922 -198.49355882 488.5619541 -208.63842773 488.56420898 C-214.85170357 488.56426013 -221.06469665 488.54506896 -227.27789497 488.51487541 C-230.78774009 488.50406671 -234.29704196 488.51617075 -237.80686951 488.52870178 C-239.96752455 488.51979528 -242.12817519 488.50972018 -244.28881836 488.49829102 C-245.2589386 488.50803452 -246.22905884 488.51777802 -247.22857666 488.52781677 C-254.513219 488.45111638 -260.07336844 486.92663156 -265.3125 481.6875 C-269.40388912 475.171584 -270.42715721 470.32515667 -270.2578125 462.7578125 C-270.25033493 461.85739227 -270.24285736 460.95697205 -270.2351532 460.02926636 C-270.21821055 458.08080955 -270.19499739 456.13239922 -270.16616821 454.18408203 C-270.12435331 451.07694615 -270.10835767 447.97067882 -270.1003418 444.86328125 C-270.07657299 436.0303409 -270.03665426 427.19831622 -269.90771484 418.36621094 C-268.66546768 385.16398859 -268.66546768 385.16398859 -280.72698975 355.00164795 C-283.55508229 350.55482938 -285.09917102 345.5201898 -286.8125 340.5625 C-287.17303467 339.53358643 -287.53356934 338.50467285 -287.9050293 337.44458008 C-291.66189813 326.45709992 -294.65931334 315.37136983 -297 304 C-297.21027832 302.99888184 -297.42055664 301.99776367 -297.63720703 300.96630859 C-303.59255077 271.22731179 -304.10954951 236.75180442 -298 207 C-297.80132324 205.98744141 -297.60264648 204.97488281 -297.39794922 203.93164062 C-292.78537774 180.86532812 -285.8957591 156.83887122 -274.02988911 136.32266903 C-271.17629148 131.18182718 -270.42726309 127.15269752 -270.50170898 121.32421875 C-270.49619019 120.49709381 -270.49067139 119.66996887 -270.48498535 118.81777954 C-270.47571519 117.03582117 -270.47551865 115.25379653 -270.48357964 113.47183228 C-270.49628096 110.64584561 -270.48485499 107.82082547 -270.46754456 104.99487305 C-270.44091201 100.0134098 -270.43524626 95.03218592 -270.43664551 90.05065918 C-270.43887846 82.07868975 -270.42462519 74.10701643 -270.38105965 66.13516235 C-270.37126508 63.3610252 -270.37991509 60.58735947 -270.38975525 57.81323242 C-270.38360751 56.10074562 -270.37669461 54.38826133 -270.36889648 52.67578125 C-270.37661575 51.9129483 -270.38433502 51.15011536 -270.39228821 50.36416626 C-270.33209969 43.92399511 -268.71512082 38.79501171 -265.3125 33.25 C-260.52049843 28.58751199 -255.26032616 26.54289813 -248.61207581 26.56105042 C-247.84475632 26.58336227 -247.07743683 26.60567413 -246.28686523 26.62866211 C-245.45457397 26.63599365 -244.62228271 26.6433252 -243.76477051 26.65087891 C-241.96798769 26.66824547 -240.17127145 26.69425931 -238.37472343 26.72810173 C-235.50682898 26.77824889 -232.6402902 26.79680498 -229.77198792 26.80628967 C-221.62076748 26.83613331 -213.47070888 26.89934806 -205.32055664 27.03735352 C-173.83197512 27.93287937 -173.83197512 27.93287937 -145.17294312 16.29873657 C-141.92493703 14.35745046 -138.54514495 13.10180587 -134.96484375 11.9140625 C-133.79832275 11.52355713 -132.63180176 11.13305176 -131.42993164 10.73071289 C-129.70117798 10.18338501 -129.70117798 10.18338501 -127.9375 9.625 C-127.31245575 9.42276825 -126.6874115 9.2205365 -126.04342651 9.01217651 C-114.50175064 5.27835587 -102.9310159 2.19196679 -91 0 C-90.19401367 -0.16081055 -89.38802734 -0.32162109 -88.55761719 -0.48730469 C-60.74328993 -5.88544343 -27.74297027 -5.68956546 0 0 Z " fill="#DDDFE4" transform="translate(301,3)"/>
<path d="M0 0 C0.84972885 -0.00058411 1.6994577 -0.00116821 2.57493591 -0.00177002 C5.35637667 0.00099507 8.13671748 0.03201132 10.91796875 0.06347656 C12.8570904 0.07094458 14.79621964 0.07663486 16.73535156 0.08062744 C21.81867613 0.09583961 26.90153755 0.13508313 31.98468018 0.17944336 C37.17982723 0.22049164 42.37504973 0.23865882 47.5703125 0.25878906 C57.74890048 0.30158184 67.92714598 0.36977934 78.10546875 0.45410156 C78.11481445 1.15905762 78.12416016 1.86401367 78.13378906 2.59033203 C78.18803737 5.83725308 78.27157599 9.08281644 78.35546875 12.32910156 C78.36964844 13.43769531 78.38382813 14.54628906 78.3984375 15.68847656 C78.63906951 23.86996481 79.78293701 31.31775132 85.03515625 37.85644531 C87.03281009 39.43290708 89.02757575 40.98447194 91.10546875 42.45410156 C91.99234375 43.09347656 92.87921875 43.73285156 93.79296875 44.39160156 C101.94220578 47.00550778 110.51255222 46.25055983 118.10546875 42.45410156 C123.96012946 38.91407416 126.98941675 32.80225755 129.10546875 26.45410156 C129.25533286 24.46345716 129.35374913 22.46874766 129.421875 20.47363281 C129.46376953 19.31025391 129.50566406 18.146875 129.54882812 16.94824219 C129.58814453 15.73330078 129.62746094 14.51835938 129.66796875 13.26660156 C129.73274414 11.42678711 129.73274414 11.42678711 129.79882812 9.54980469 C129.90499965 6.51801775 130.00704827 3.48614842 130.10546875 0.45410156 C141.06715637 0.38451039 152.02879119 0.33124393 162.99065495 0.29866505 C168.0810077 0.28302673 173.17120901 0.26182189 178.26147461 0.2277832 C183.17628399 0.19512445 188.09094793 0.17723475 193.00585747 0.16946983 C194.87849656 0.16393803 196.75112793 0.15313574 198.62370491 0.13691139 C201.25199547 0.11505047 203.8796894 0.11213825 206.50805664 0.11352539 C207.66252541 0.09734665 207.66252541 0.09734665 208.84031677 0.08084106 C216.0694526 0.1219722 221.82470923 2.31606527 227.10546875 7.45410156 C238.70092911 27.74615718 231.10546875 54.08270404 231.10546875 77.45410156 C177.97546875 77.45410156 124.84546875 77.45410156 70.10546875 77.45410156 C70.43546875 98.24410156 70.76546875 119.03410156 71.10546875 140.45410156 C71.17121012 156.50333641 71.23393244 172.55001391 71.21119881 188.59898186 C71.20213002 195.86689685 71.20022981 203.13480531 71.19883728 210.40272522 C71.19578935 221.85415578 71.18766915 233.30557622 71.17748779 244.75700241 C71.16397061 260.31463253 71.15877364 275.87226562 71.15298557 291.42990017 C71.14372074 315.77130814 71.12375986 340.11269482 71.10546875 364.45410156 C116.97546875 364.45410156 162.84546875 364.45410156 210.10546875 364.45410156 C210.10546875 377.98410156 210.10546875 391.51410156 210.10546875 405.45410156 C132.88546875 405.45410156 55.66546875 405.45410156 -23.89453125 405.45410156 C-24.22453125 386.97410156 -24.55453125 368.49410156 -24.89453125 349.45410156 C-28.52453125 341.86410156 -32.15453125 334.27410156 -35.89453125 326.45410156 C-37.60999932 322.29202111 -39.2434884 318.25151007 -40.70703125 314.01660156 C-41.06756592 312.98768799 -41.42810059 311.95877441 -41.79956055 310.89868164 C-45.55642938 299.91120149 -48.55384459 288.82547139 -50.89453125 277.45410156 C-51.10480957 276.4529834 -51.31508789 275.45186523 -51.53173828 274.42041016 C-57.48708202 244.68141335 -58.00408076 210.20590598 -51.89453125 180.45410156 C-51.69585449 179.44154297 -51.49717773 178.42898437 -51.29248047 177.38574219 C-46.67990899 154.31942969 -39.79029035 130.29297279 -27.92442036 109.77677059 C-25.07082273 104.63592874 -24.32179434 100.60679908 -24.39624023 94.77832031 C-24.39072144 93.95119537 -24.38520264 93.12407043 -24.3795166 92.2718811 C-24.37024644 90.48992273 -24.3700499 88.70789809 -24.37811089 86.92593384 C-24.39081221 84.09994717 -24.37938624 81.27492704 -24.36207581 78.44897461 C-24.33544326 73.46751136 -24.32977751 68.48628748 -24.33117676 63.50476074 C-24.33340971 55.53279131 -24.31915644 47.56111799 -24.2755909 39.58926392 C-24.26579633 36.81512676 -24.27444634 34.04146103 -24.2842865 31.26733398 C-24.27813876 29.55484718 -24.27122586 27.8423629 -24.26342773 26.12988281 C-24.271147 25.36704987 -24.27886627 24.60421692 -24.28681946 23.81826782 C-24.22663094 17.37809667 -22.60965207 12.24911328 -19.20703125 6.70410156 C-13.59121497 1.2400641 -7.63215273 -0.13986428 0 0 Z " fill="#EDEDED" transform="translate(54.89453125,29.5458984375)"/>
<path d="M0 0 C1.02464355 0.20399414 2.04928711 0.40798828 3.10498047 0.61816406 C38.58716681 7.8375516 74.4852277 21.28675053 103.28515625 43.78515625 C104.92173678 45.19268964 104.92173678 45.19268964 107 45 C108.41261529 43.37898212 108.41261529 43.37898212 109.8125 41.3125 C112.31073571 37.8789345 114.87496175 34.89637691 118 32 C118.50015625 31.51789062 119.0003125 31.03578125 119.515625 30.5390625 C130.99957443 19.96738943 145.12521812 17.19840121 160.265625 17.65234375 C175.20380596 18.49058842 187.73476042 25.31421057 198 36 C210.28624089 50.41223026 212.21751921 66.81883324 211 85 C210.23133073 89.38048873 208.97266739 93.02548376 207 97 C206.50242187 98.01191406 206.00484375 99.02382812 205.4921875 100.06640625 C200.07040306 110.14083827 192.30180891 118.73630201 182 124 C180.33857106 124.3585286 178.67208035 124.69498163 177 125 C177.28609131 125.51570557 177.57218262 126.03141113 177.86694336 126.56274414 C191.21267203 150.81632133 200.75443388 176.284059 206.3125 203.4375 C206.45985596 204.15639404 206.60721191 204.87528809 206.7590332 205.6159668 C209.73289088 221.26225609 210.37300362 236.73568046 210.3125 252.625 C210.31034485 253.64290619 210.3081897 254.66081238 210.30596924 255.70956421 C210.25629854 270.31863523 210.00540191 284.65075853 207 299 C206.70198486 300.46228027 206.70198486 300.46228027 206.39794922 301.95410156 C202.46480669 320.75658515 197.14429483 339.5594744 189 357 C188.030625 356.154375 187.06125 355.30875 186.0625 354.4375 C184.7106996 353.28887601 183.35635144 352.14324632 182 351 C181.31292969 350.4121875 180.62585938 349.824375 179.91796875 349.21875 C169.28578228 340.48311571 158.50895465 337.50099496 145 336 C145 267.36 145 198.72 145 128 C142.03 127.34 139.06 126.68 136 126 C125.73561002 122.19265735 116.05805852 115.25591892 110 106 C110 105.34 110 104.68 110 104 C68.75 104 27.5 104 -15 104 C-15.125 73.0625 -15.125 73.0625 -15.11767578 63.34399414 C-15.14121382 60.78269226 -15.16694645 58.22140921 -15.1953125 55.66015625 C-15.1862085 54.34591675 -15.17710449 53.03167725 -15.16772461 51.6776123 C-15.2921814 43.55334977 -16.34563114 38.05116373 -22 32 C-27.38531797 27.8969006 -32.68373023 27.84315253 -39.25683594 27.79467773 C-40.08647354 27.78477814 -40.91611115 27.77487854 -41.77088928 27.76467896 C-44.50868899 27.73313257 -47.24650603 27.70833366 -49.984375 27.68359375 C-51.88438361 27.6630183 -53.78438771 27.64202167 -55.68438721 27.62062073 C-60.68203063 27.56546112 -65.67971494 27.51602489 -70.6774292 27.46777344 C-75.77847935 27.41751379 -80.87947021 27.36185103 -85.98046875 27.30664062 C-95.9869285 27.1991338 -105.99343976 27.09767223 -116 27 C-115.97905273 27.74048584 -115.95810547 28.48097168 -115.93652344 29.24389648 C-115.85270101 32.64162282 -115.80113076 36.03913072 -115.75 39.4375 C-115.69972656 41.18450195 -115.69972656 41.18450195 -115.6484375 42.96679688 C-115.54933424 51.76221087 -116.99253602 58.24247613 -122.3125 65.3125 C-128.132191 71.132191 -134.07228415 73.12291444 -142.1875 73.375 C-149.82026362 73.28952672 -154.42111009 71.27831908 -160 66.16796875 C-167.83905206 57.88797001 -168.43276325 49.98024723 -168.1875 39 C-168.17396484 37.84371094 -168.16042969 36.68742187 -168.14648438 35.49609375 C-168.11137044 32.66356996 -168.06219 29.83203693 -168 27 C-143.52598771 14.31293484 -118.19036795 4.99541564 -91 0 C-89.79102051 -0.24121582 -89.79102051 -0.24121582 -88.55761719 -0.48730469 C-60.74328993 -5.88544343 -27.74297027 -5.68956546 0 0 Z " fill="#E54E5F" transform="translate(301,3)"/>
<path d="M0 0 C34.65 0 69.3 0 105 0 C105.66 5.28 106.32 10.56 107 16 C111.96760822 31.05335825 121.1800594 42.79154635 135.3203125 50.21875 C137.36143763 51.14323296 137.36143763 51.14323296 140 52 C138.68088879 54.99319785 137.36236406 56.82025713 134.83203125 58.8828125 C134.19402588 59.40512451 133.55602051 59.92743652 132.89868164 60.46557617 C132.2102417 61.01318604 131.52180176 61.5607959 130.8125 62.125 C130.09634521 62.69903564 129.38019043 63.27307129 128.64233398 63.86450195 C121.70153979 69.35532265 114.50444783 74.31664391 107 79 C106.0406958 79.60424805 106.0406958 79.60424805 105.06201172 80.22070312 C77.47083617 97.46262615 46.99272316 109.12229544 15 115 C14.19401367 115.16081055 13.38802734 115.32162109 12.55761719 115.48730469 C-15.2038564 120.87518572 -48.31784815 120.76215355 -76 115 C-76.97630371 114.80132324 -77.95260742 114.60264648 -78.95849609 114.39794922 C-95.26146205 110.98712653 -113.09636325 107.10085062 -128.00120544 99.46182251 C-132.78181232 97.41943215 -137.45369899 97.59038417 -142.58178711 97.63110352 C-143.62334457 97.62733704 -144.66490204 97.62357056 -145.73802185 97.61968994 C-147.99092142 97.61327317 -150.24384808 97.61357271 -152.49674797 97.61987495 C-156.06601361 97.62900517 -159.63475618 97.61873879 -163.20399475 97.60325623 C-173.34879775 97.56320922 -183.49355882 97.5619541 -193.63842773 97.56420898 C-199.85170357 97.56426013 -206.06469665 97.54506896 -212.27789497 97.51487541 C-215.78774009 97.50406671 -219.29704196 97.51617075 -222.80686951 97.52870178 C-224.96752455 97.51979528 -227.12817519 97.50972018 -229.28881836 97.49829102 C-230.74399872 97.51290627 -230.74399872 97.51290627 -232.22857666 97.52781677 C-239.513219 97.45111638 -245.07336844 95.92663156 -250.3125 90.6875 C-260.42219704 74.58687138 -255 64.24604444 -255 41 C-170.85 41 -86.7 41 0 41 C0 27.47 0 13.94 0 0 Z " fill="#205081" transform="translate(286,394)"/>
<path d="M0 0 C36.18820476 -0.19839839 72.37589678 -0.36457885 108.56448973 -0.45958797 C112.83653252 -0.47084437 117.10857416 -0.48249327 121.38061523 -0.49438477 C122.65634879 -0.49792596 122.65634879 -0.49792596 123.95785474 -0.50153869 C137.7302399 -0.54070425 151.50228708 -0.61166708 165.27447171 -0.69437516 C179.40528949 -0.77852944 193.53593022 -0.82852688 207.66698831 -0.84679645 C216.38733711 -0.85914791 225.10673064 -0.89816047 233.82678538 -0.9712482 C239.8059234 -1.01881091 245.78456738 -1.03320386 251.76388086 -1.0215124 C255.2144323 -1.01574519 258.66331449 -1.02460077 262.11356926 -1.07284927 C265.85655533 -1.11755934 269.59543749 -1.10689637 273.33851624 -1.08229065 C274.9713118 -1.12161401 274.9713118 -1.12161401 276.63709313 -1.16173178 C283.87170333 -1.0329551 283.87170333 -1.0329551 287.12602508 1.94637501 C288.96712399 4.33717442 288.96712399 4.33717442 290.46978849 6.70919186 C296.80572503 16.19442637 309.54976011 21.01421717 320 24 C320 36.54 320 49.08 320 62 C214.4 62 108.8 62 0 62 C0 41.54 0 21.08 0 0 Z " fill="#53B3EC" transform="translate(126,107)"/>
<path d="M0 0 C1.02464355 0.20399414 2.04928711 0.40798828 3.10498047 0.61816406 C38.47817822 7.81537622 71.33935141 21.35705776 101 42 C102.9939651 43.34268117 104.99609818 44.67214978 107 46 C106.81824219 46.52207031 106.63648438 47.04414062 106.44921875 47.58203125 C105.60746142 50.04686939 104.80194172 52.52192784 104 55 C103.71382813 55.84304687 103.42765625 56.68609375 103.1328125 57.5546875 C97.89291912 74.37225006 102.39421088 88.14610611 109 104 C68.08 104 27.16 104 -15 104 C-15.125 73.0625 -15.125 73.0625 -15.11767578 63.34399414 C-15.14121382 60.78269226 -15.16694645 58.22140921 -15.1953125 55.66015625 C-15.1862085 54.34591675 -15.17710449 53.03167725 -15.16772461 51.6776123 C-15.2921814 43.55334977 -16.34563114 38.05116373 -22 32 C-27.38531797 27.8969006 -32.68373023 27.84315253 -39.25683594 27.79467773 C-40.08647354 27.78477814 -40.91611115 27.77487854 -41.77088928 27.76467896 C-44.50868899 27.73313257 -47.24650603 27.70833366 -49.984375 27.68359375 C-51.88438361 27.6630183 -53.78438771 27.64202167 -55.68438721 27.62062073 C-60.68203063 27.56546112 -65.67971494 27.51602489 -70.6774292 27.46777344 C-75.77847935 27.41751379 -80.87947021 27.36185103 -85.98046875 27.30664062 C-95.9869285 27.1991338 -105.99343976 27.09767223 -116 27 C-115.97905273 27.74048584 -115.95810547 28.48097168 -115.93652344 29.24389648 C-115.85270101 32.64162282 -115.80113076 36.03913072 -115.75 39.4375 C-115.69972656 41.18450195 -115.69972656 41.18450195 -115.6484375 42.96679688 C-115.54933424 51.76221087 -116.99253602 58.24247613 -122.3125 65.3125 C-128.132191 71.132191 -134.07228415 73.12291444 -142.1875 73.375 C-149.82026362 73.28952672 -154.42111009 71.27831908 -160 66.16796875 C-167.83905206 57.88797001 -168.43276325 49.98024723 -168.1875 39 C-168.17396484 37.84371094 -168.16042969 36.68742187 -168.14648438 35.49609375 C-168.11137044 32.66356996 -168.06219 29.83203693 -168 27 C-143.52598771 14.31293484 -118.19036795 4.99541564 -91 0 C-89.79102051 -0.24121582 -89.79102051 -0.24121582 -88.55761719 -0.48730469 C-60.74328993 -5.88544343 -27.74297027 -5.68956546 0 0 Z " fill="#E54E60" transform="translate(301,3)"/>
<path d="M0 0 C34.65 0 69.3 0 105 0 C105.99 7.92 105.99 7.92 107 16 C111.96760822 31.05335825 121.1800594 42.79154635 135.3203125 50.21875 C137.36143763 51.14323296 137.36143763 51.14323296 140 52 C138.68088879 54.99319785 137.36236406 56.82025713 134.83203125 58.8828125 C134.19402588 59.40512451 133.55602051 59.92743652 132.89868164 60.46557617 C132.2102417 61.01318604 131.52180176 61.5607959 130.8125 62.125 C130.09634521 62.69903564 129.38019043 63.27307129 128.64233398 63.86450195 C121.70153979 69.35532265 114.50444783 74.31664391 107 79 C106.36046387 79.40283203 105.72092773 79.80566406 105.06201172 80.22070312 C77.47083617 97.46262615 46.99272316 109.12229544 15 115 C14.19401367 115.16081055 13.38802734 115.32162109 12.55761719 115.48730469 C-15.2038564 120.87518572 -48.31784815 120.76215355 -76 115 C-76.97630371 114.80132324 -77.95260742 114.60264648 -78.95849609 114.39794922 C-97.01387165 110.62049641 -115.1295803 105.54729303 -132 98 C-132 97.67 -132 97.34 -132 97 C-131.40438766 96.99853344 -130.80877533 96.99706688 -130.19511414 96.99555588 C-115.67987003 96.95844954 -101.16482903 96.89938424 -86.64978027 96.81609726 C-79.63028599 96.77634509 -72.61090319 96.74393331 -65.59130859 96.72900391 C-58.81547265 96.71457207 -52.03999487 96.6794172 -45.26431274 96.63169098 C-42.68082688 96.61686753 -40.09729168 96.60895844 -37.51376343 96.60811615 C-33.89161444 96.6057478 -30.27042148 96.57867592 -26.6484375 96.54589844 C-25.0505262 96.55344398 -25.0505262 96.55344398 -23.42033386 96.56114197 C-16.23916683 96.46077541 -10.5309961 95.41854399 -5.16015625 90.21875 C-4.79792969 89.6515625 -4.43570313 89.084375 -4.0625 88.5 C-3.68222656 87.9328125 -3.30195313 87.365625 -2.91015625 86.78125 C-0.67978987 82.41624112 -0.83192295 77.91551421 -0.79467773 73.11035156 C-0.78464501 72.30698238 -0.77461229 71.5036132 -0.76427555 70.67589951 C-0.73294608 68.08083713 -0.70814232 65.48575945 -0.68359375 62.890625 C-0.66518518 61.28629057 -0.64634823 59.681961 -0.6270752 58.07763672 C-0.55869099 52.13514863 -0.49859758 46.19256747 -0.4375 40.25 C-0.293125 26.9675 -0.14875 13.685 0 0 Z " fill="#E54E60" transform="translate(286,394)"/>
<path d="M0 0 C12.7778687 9.35599877 20.93350442 21.01790881 24.3046875 36.6875 C25.1987341 48.22008459 25.53855331 60.14234432 20.3046875 70.6875 C19.80710937 71.69941406 19.30953125 72.71132812 18.796875 73.75390625 C12.05608266 86.279239 2.20586791 95.69557374 -11.4453125 100 C-27.98906152 104.73534845 -43.43406004 104.28007636 -58.75390625 96.04296875 C-71.85453056 88.16837368 -80.98801764 76.10164164 -85.37890625 61.3984375 C-89.37458376 44.47880997 -85.44480625 28.43160912 -76.6953125 13.6875 C-71.02037865 5.08356803 -61.20349287 -1.56356031 -51.6953125 -5.3125 C-50.94636719 -5.61027344 -50.19742188 -5.90804688 -49.42578125 -6.21484375 C-33.3526464 -11.57255537 -14.12220821 -9.2604644 0 0 Z " fill="#FEC32E" transform="translate(487.6953125,29.3125)"/>
<path d="M0 0 C13.32468796 9.64470215 21.36703881 21.7084987 24.55078125 38.08203125 C26.53032871 52.13503484 23.64723353 66.15888974 15.984375 78.16015625 C13.20194041 81.73829618 10.21034496 84.97978304 6.984375 88.16015625 C6.13746094 89.02253906 6.13746094 89.02253906 5.2734375 89.90234375 C-5.77038577 100.29969932 -20.35751629 103.14558194 -35.015625 103.16015625 C-49.11936796 102.5432246 -62.24442464 95.09671539 -72.015625 85.16015625 C-84.70270306 70.17118282 -87.49229468 54.30053136 -86.015625 35.16015625 C-85.19816045 31.13823069 -83.89426166 27.79566609 -82.015625 24.16015625 C-81.55671875 23.21785156 -81.0978125 22.27554687 -80.625 21.3046875 C-73.54913269 7.50674624 -62.69653138 -1.55717451 -48.015625 -6.83984375 C-31.37148888 -11.71297226 -14.72275111 -9.17250763 0 0 Z " fill="#01D9A9" transform="translate(477.015625,347.83984375)"/>
<path d="M0 0 C38.28 0 76.56 0 116 0 C115.34610945 6.53890549 114.59873206 12.73620511 113.29296875 19.12890625 C113.12630203 19.96228012 112.95963531 20.79565399 112.78791809 21.65428162 C112.43635331 23.40678454 112.08245921 25.15882168 111.72631836 26.91040039 C111.19391295 29.53093503 110.66958572 32.15298477 110.14648438 34.77539062 C109.79996199 36.49749306 109.45297086 38.21950125 109.10546875 39.94140625 C108.95426071 40.69724503 108.80305267 41.4530838 108.64726257 42.23182678 C106.95123286 50.53968442 104.94520839 58.73286435 103 67 C73.63 67 44.26 67 14 67 C12.62245206 62.86735617 11.52848631 59.165589 10.66796875 54.94921875 C10.42908936 53.78729004 10.19020996 52.62536133 9.9440918 51.42822266 C9.6944165 50.19378418 9.44474121 48.9593457 9.1875 47.6875 C8.92686768 46.41181152 8.66623535 45.13612305 8.39770508 43.82177734 C7.85894363 41.18263955 7.32281911 38.54298654 6.7890625 35.90283203 C6.27744231 33.37227501 5.76450256 30.84198428 5.25 28.31201172 C4.55963061 24.91691388 3.872651 21.52115444 3.1875 18.125 C2.98084717 17.10494873 2.77419434 16.08489746 2.5612793 15.03393555 C2.36961182 14.07656494 2.17794434 13.11919434 1.98046875 12.1328125 C1.81442139 11.30668457 1.64837402 10.48055664 1.47729492 9.62939453 C0.89730475 6.43425687 0.45924489 3.2147142 0 0 Z " fill="#FE586C" transform="translate(240,223)"/>
<path d="M0 0 C0.33 0 0.66 0 1 0 C1 81.84 1 163.68 1 248 C-15.63329523 231.36670477 -22.40078078 197.34362397 -27 175 C-27.21027832 173.99888184 -27.42055664 172.99776367 -27.63720703 171.96630859 C-33.59255077 142.22731179 -34.10954951 107.75180442 -28 78 C-27.80132324 76.98744141 -27.60264648 75.97488281 -27.39794922 74.93164062 C-22.13657639 48.62083538 -13.33935342 23.33263425 0 0 Z " fill="#E64F61" transform="translate(31,132)"/>
<path d="M0 0 C52.8 0 105.6 0 160 0 C160 56.1 160 112.2 160 170 C153.07 170.99 153.07 170.99 146 172 C144.02 172.33 142.04 172.66 140 173 C140 116.24 140 59.48 140 1 C93.8 1 47.6 1 0 1 C0 0.67 0 0.34 0 0 Z " fill="#C5CACD" transform="translate(286,169)"/>
<path d="M0 0 C12.7778687 9.35599877 20.93350442 21.01790881 24.3046875 36.6875 C25.1987341 48.22008459 25.53855331 60.14234432 20.3046875 70.6875 C19.80710937 71.69941406 19.30953125 72.71132812 18.796875 73.75390625 C14.50666764 81.72571015 8.85507382 89.94308703 0.3046875 93.6875 C1.22697866 91.3049145 2.18255965 88.9507756 3.2578125 86.6328125 C3.60328125 85.88773437 3.94875 85.14265625 4.3046875 84.375 C4.6346875 83.67761719 4.9646875 82.98023437 5.3046875 82.26171875 C11.12292587 67.28430045 9.3152219 51.25870288 3.0546875 36.80078125 C-3.83721931 22.76243697 -15.72924035 14.49837016 -30.15234375 9.44921875 C-43.60457452 5.4197487 -58.50398259 6.76962975 -70.87109375 13.38671875 C-73.6953125 14.6875 -73.6953125 14.6875 -76.6953125 13.6875 C-70.23789985 5.31031602 -61.5838953 -1.41357307 -51.6953125 -5.3125 C-50.94636719 -5.61027344 -50.19742187 -5.90804688 -49.42578125 -6.21484375 C-33.3526464 -11.57255537 -14.12220821 -9.2604644 0 0 Z " fill="#F4B42D" transform="translate(487.6953125,29.3125)"/>
<path d="M0 0 C13.32468796 9.64470215 21.36703881 21.7084987 24.55078125 38.08203125 C26.5281991 52.11991651 23.66252261 66.17959834 15.984375 78.16015625 C13.17166386 81.69557789 10.17156748 84.96137398 6.984375 88.16015625 C6.27539062 88.91296875 5.56640625 89.66578125 4.8359375 90.44140625 C2.984375 92.16015625 2.984375 92.16015625 0.984375 92.16015625 C2.01687231 89.53066543 3.08379098 86.94596 4.2734375 84.3828125 C9.92539371 71.0131266 10.37729738 54.66487576 5.31640625 40.984375 C2.98381892 36.03874264 0.20490484 31.57242401 -3.015625 27.16015625 C-3.47710937 26.50273437 -3.93859375 25.8453125 -4.4140625 25.16796875 C-11.91058361 15.41815806 -25.15300798 9.41417359 -37.015625 7.16015625 C-39.91792965 6.85519548 -42.78600555 6.77944139 -45.703125 6.78515625 C-46.87343262 6.78539795 -46.87343262 6.78539795 -48.06738281 6.78564453 C-55.19202121 6.92439825 -61.37190718 8.61772792 -68.015625 11.16015625 C-70.01328999 11.83378747 -72.01268182 12.50238497 -74.015625 13.16015625 C-71.59149806 5.45441196 -64.48831509 1.07948848 -57.6796875 -2.68359375 C-38.4061274 -11.84864331 -18.41129445 -11.47052868 0 0 Z " fill="#02C499" transform="translate(477.015625,347.83984375)"/>
<path d="M0 0 C17.16 0 34.32 0 52 0 C52 29.27027027 52 29.27027027 45.6875 38.3125 C39.867809 44.132191 33.92771585 46.12291444 25.8125 46.375 C18.17973638 46.28952672 13.57888991 44.27831908 8 39.16796875 C-2.85291426 27.70457807 0 16.35956214 0 0 Z " fill="#225182" transform="translate(133,30)"/>
<path d="M0 0 C10.96168762 -0.06959117 21.92332244 -0.12285763 32.8851862 -0.15543652 C37.97553895 -0.17107483 43.06574026 -0.19227967 48.15600586 -0.22631836 C53.07081524 -0.25897711 57.98547918 -0.27686681 62.90038872 -0.28463173 C64.77302781 -0.29016353 66.64565918 -0.30096582 68.51823616 -0.31719017 C71.14652672 -0.33905109 73.77422065 -0.34196332 76.40258789 -0.34057617 C77.55705666 -0.35675491 77.55705666 -0.35675491 78.73484802 -0.3732605 C85.96398385 -0.33212936 91.71924048 1.86196371 97 7 C108.59546036 27.29205562 101 53.62860248 101 77 C48.2 77 -4.6 77 -59 77 C-59 76.67 -59 76.34 -59 76 C-13.13 76 32.74 76 80 76 C82.90401631 38.50450579 82.90401631 38.50450579 73 5 C68.73285169 2.05373245 65.29331217 1.61597464 60.16845703 1.56762695 C59.51409164 1.5574353 58.85972626 1.54724365 58.18553162 1.53674316 C56.04286966 1.50677553 53.9006559 1.49737276 51.7578125 1.48828125 C50.26421644 1.4714224 48.77063447 1.45327054 47.27706909 1.43388367 C43.36121014 1.38650799 39.44540831 1.35661861 35.52935791 1.33044434 C31.52726973 1.30057573 27.5253781 1.25406716 23.5234375 1.20898438 C15.68238853 1.12309289 7.84132141 1.05568509 0 1 C0 0.67 0 0.34 0 0 Z " fill="#DEDFE0" transform="translate(185,30)"/>
<path d="M0 0 C3.07421875 0.46484375 3.07421875 0.46484375 5.3125 1.0625 C3.61066715 6.17825056 0.63496469 10.41265815 -2.3125 14.875 C-2.828125 15.66326172 -3.34375 16.45152344 -3.875 17.26367188 C-5.14191417 19.1992352 -6.41282964 21.13203942 -7.6875 23.0625 C-6.85674344 23.05835193 -6.85674344 23.05835193 -6.00920391 23.05412006 C7.46097018 22.98789448 20.93111579 22.9384276 34.40141773 22.90706348 C40.91554123 22.8913875 47.4295475 22.87011379 53.94360352 22.83618164 C60.22648463 22.80365739 66.50925276 22.78566156 72.79221153 22.77786827 C75.19287584 22.7723123 77.59353377 22.7614633 79.99415016 22.74530983 C83.34885798 22.72362805 86.70309506 22.72052923 90.05786133 22.72192383 C91.55650223 22.70574509 91.55650223 22.70574509 93.0854187 22.6892395 C94.45469765 22.69542549 94.45469765 22.69542549 95.85163879 22.70173645 C96.64530255 22.69897107 97.43896631 22.69620569 98.25668049 22.69335651 C100.86184327 23.16114022 101.77579336 23.93027521 103.3125 26.0625 C102.87771739 31.49728261 102.87771739 31.49728261 101.3125 33.0625 C97.6433423 33.20560287 93.98534559 33.10471662 90.3125 33.0625 C90.3125 37.6825 90.3125 42.3025 90.3125 47.0625 C87.0125 47.0625 83.7125 47.0625 80.3125 47.0625 C80.3125 42.4425 80.3125 37.8225 80.3125 33.0625 C57.2125 33.0625 34.1125 33.0625 10.3125 33.0625 C10.3125 37.6825 10.3125 42.3025 10.3125 47.0625 C6.6825 47.0625 3.0525 47.0625 -0.6875 47.0625 C-0.6875 42.4425 -0.6875 37.8225 -0.6875 33.0625 C-2.399375 33.145 -4.11125 33.2275 -5.875 33.3125 C-9.71676621 33.3125 -11.35597249 33.25194429 -14.75 31.3125 C-17.63848004 27.95813608 -18.76310284 26.51554979 -18.52734375 21.984375 C-17.07488064 12.88519036 -10.02697148 -0.11908517 0 0 Z " fill="#F4F4F4" transform="translate(258.6875,288.9375)"/>
<path d="M0 0 C1.95607933 -0.00845947 1.95607933 -0.00845947 3.95167542 -0.01708984 C5.40524347 -0.01320086 6.85881098 -0.0091045 8.31237793 -0.00482178 C9.83650378 -0.00753052 11.36062832 -0.0110908 12.88475037 -0.01544189 C17.03136067 -0.02458207 21.17787177 -0.02101497 25.32448387 -0.01468372 C29.65708058 -0.00963213 33.9896686 -0.01431283 38.32226562 -0.01745605 C45.59909597 -0.02109816 52.87588577 -0.0162902 60.15270996 -0.0067749 C68.57446495 0.00411012 76.99612312 0.00058472 85.41787577 -0.01042771 C92.63912744 -0.01949364 99.86034991 -0.02078928 107.08160543 -0.01555037 C111.39870383 -0.01242684 115.71575667 -0.0120318 120.03285217 -0.01862335 C124.09084688 -0.02438612 128.14871634 -0.02041966 132.20669746 -0.00883484 C133.69908502 -0.0061825 135.19148306 -0.00696308 136.6838665 -0.01136017 C138.71494046 -0.01679425 140.74603737 -0.00878375 142.77709961 0 C144.48497272 0.00113108 144.48497272 0.00113108 146.22734833 0.002285 C148.8885498 0.25396729 148.8885498 0.25396729 150.8885498 2.25396729 C151.1385498 5.25396729 151.1385498 5.25396729 150.8885498 8.25396729 C148.14454844 10.99796865 146.62055446 10.50538916 142.77709961 10.50793457 C140.82102028 10.51639404 140.82102028 10.51639404 138.82542419 10.52502441 C137.37185614 10.52113544 135.91828863 10.51703907 134.46472168 10.51275635 C132.94059583 10.51546509 131.41647129 10.51902537 129.89234924 10.52337646 C125.74573894 10.53251664 121.59922784 10.52894954 117.45261574 10.52261829 C113.12001903 10.5175667 108.78743101 10.5222474 104.45483398 10.52539062 C97.17800364 10.52903273 89.90121384 10.52422477 82.62438965 10.51470947 C74.20263466 10.50382445 65.78097649 10.50734985 57.35922384 10.51836228 C50.13797217 10.52742821 42.9167497 10.52872385 35.69549417 10.52348495 C31.37839578 10.52036141 27.06134294 10.51996637 22.74424744 10.52655792 C18.68625273 10.53232069 14.62838327 10.52835423 10.57040215 10.51676941 C9.07801459 10.51411707 7.58561655 10.51489765 6.09323311 10.51929474 C4.06215915 10.52472882 2.03106224 10.51671832 0 10.50793457 C-1.70787312 10.50680349 -1.70787312 10.50680349 -3.45024872 10.50564957 C-6.1114502 10.25396729 -6.1114502 10.25396729 -8.1114502 8.25396729 C-8.3614502 5.25396729 -8.3614502 5.25396729 -8.1114502 2.25396729 C-5.36744883 -0.49003408 -3.84345485 0.00254541 0 0 Z " fill="#FEFEFE" transform="translate(262.1114501953125,132.74603271484375)"/>
<path d="M0 0 C0.79075928 0.00523682 1.58151855 0.01047363 2.39624023 0.01586914 C3.67724609 0.02070313 3.67724609 0.02070313 4.98413086 0.02563477 C5.88196289 0.03401367 6.77979492 0.04239258 7.70483398 0.05102539 C8.6065332 0.05553711 9.50823242 0.06004883 10.43725586 0.06469727 C12.67234712 0.07652315 14.90730835 0.09300319 17.14233398 0.11352539 C16.50992392 9.24099601 14.68823612 18.07481432 12.86865234 27.02392578 C12.33624694 29.64446042 11.81191971 32.26651016 11.28881836 34.88891602 C9.12061879 45.68719826 6.7194946 56.40527826 4.14233398 67.11352539 C-2.45766602 67.11352539 -9.05766602 67.11352539 -15.85766602 67.11352539 C-14.57274019 58.271287 -12.97618797 49.58521441 -11.04516602 40.86352539 C-8.70550217 30.15603752 -6.48846147 19.43228713 -4.41894531 8.66918945 C-4.22727783 7.68789062 -4.03561035 6.7065918 -3.83813477 5.69555664 C-3.6720874 4.83164307 -3.50604004 3.96772949 -3.33496094 3.07763672 C-2.72467831 0.56626906 -2.60142042 0.15897759 0 0 Z " fill="#E65061" transform="translate(338.857666015625,222.886474609375)"/>
<path d="M0 0 C6.93 0 13.86 0 21 0 C21.06906781 5.5689117 21.12874184 11.1363227 21.16479492 16.70532227 C21.17983246 18.59762625 21.20026785 20.48989566 21.22631836 22.38208008 C21.26292399 25.11027586 21.2797769 27.83800871 21.29296875 30.56640625 C21.30845261 31.40522842 21.32393646 32.2440506 21.33988953 33.10829163 C21.34175837 39.70883403 19.85029664 44.05323128 16.3125 49.6875 C11.7893736 54.2106264 7.03172614 56.22882465 0.625 56.390625 C-1.25040243 56.3643956 -3.12561908 56.31721918 -5 56.25 C-5.96550781 56.23195313 -6.93101562 56.21390625 -7.92578125 56.1953125 C-10.28492033 56.14859687 -12.64191075 56.08312137 -15 56 C-13 54 -13 54 -9.6875 52.375 C-5.29141168 49.87978516 -3.03903719 46.58147623 -1 42 C-0.32661144 38.66239942 -0.27774034 35.42884382 -0.29296875 32.03125 C-0.27784744 31.11033569 -0.26272614 30.18942139 -0.24714661 29.24060059 C-0.20448703 26.32681374 -0.19545271 23.41406716 -0.1875 20.5 C-0.16433877 18.5129936 -0.13897007 16.52601162 -0.11132812 14.5390625 C-0.04457183 9.69215114 -0.02338989 4.84808586 0 0 Z " fill="#1C3B5C" transform="translate(265,435)"/>
<path d="M0 0 C2.97 0 5.94 0 9 0 C9 2.64 9 5.28 9 8 C9.928125 8.103125 10.85625 8.20625 11.8125 8.3125 C15.03254358 9.0070192 16.02579865 9.47740939 18 12 C17.01 14.31 16.02 16.62 15 19 C14.175 18.67 13.35 18.34 12.5 18 C8.4126017 16.83217191 5.23076656 16.8541115 1 17 C0.67 18.65 0.34 20.3 0 22 C3.29671108 24.30769776 6.46546284 26.25849887 10.125 27.9375 C14.41789635 30.01417835 16.86107088 32.72214175 19 37 C19.54280937 43.40515061 18.8679143 46.80885186 15 52 C10.16129032 55 10.16129032 55 7 55 C7 57.64 7 60.28 7 63 C4.36 63 1.72 63 -1 63 C-1 60.36 -1 57.72 -1 55 C-2.6396875 54.814375 -2.6396875 54.814375 -4.3125 54.625 C-8 54 -8 54 -11 52 C-10.67 49.69 -10.34 47.38 -10 45 C-7 44 -7 44 -4.25 44.9375 C-0.14893246 46.27823362 4.02132821 46.98933589 8 45 C8 43.02 8 41.04 8 39 C7.03578125 38.48050781 6.0715625 37.96101563 5.078125 37.42578125 C3.80177552 36.72191205 2.52575086 36.0174536 1.25 35.3125 C0.61578125 34.97283203 -0.0184375 34.63316406 -0.671875 34.28320312 C-4.66464286 32.05806687 -7.52567167 29.97114423 -10 26 C-10.92660219 21.9676829 -10.91858516 17.84093502 -9.046875 14.08984375 C-6.53771478 10.85810891 -3.90015968 9.11433134 0 8 C0 5.36 0 2.72 0 0 Z " fill="#F5FDFB" transform="translate(442,363)"/>
<path d="M0 0 C6.6 0 13.2 0 20 0 C20.10856412 4.14654634 20.18760125 8.29021168 20.25 12.4375 C20.30027344 14.18450195 20.30027344 14.18450195 20.3515625 15.96679688 C20.45066576 24.76221087 19.00746398 31.24247613 13.6875 38.3125 C7.66720044 44.33279956 1.75129163 46.14022973 -6.625 46.1875 C-7.77226562 46.20167969 -8.91953125 46.21585938 -10.1015625 46.23046875 C-13 46 -13 46 -15 44 C-14.41992188 43.62230469 -13.83984375 43.24460938 -13.2421875 42.85546875 C-12.07042969 42.02982422 -12.07042969 42.02982422 -10.875 41.1875 C-9.72644531 40.40439453 -9.72644531 40.40439453 -8.5546875 39.60546875 C-2.80375843 33.74022457 0.32164439 27.49656011 0.5859375 19.23828125 C0.54668542 16.92895056 0.47605631 14.6199524 0.375 12.3125 C0.34792969 11.12205078 0.32085937 9.93160156 0.29296875 8.70507812 C0.22302916 5.8025851 0.11544299 2.90103951 0 0 Z " fill="#1E3D5E" transform="translate(165,30)"/>
<path d="M0 0 C6.435 2.97 6.435 2.97 13 6 C15.31 6.66 17.62 7.32 20 8 C20 20.54 20 33.08 20 46 C13.4 46 6.8 46 0 46 C0 30.82 0 15.64 0 0 Z " fill="#479FDA" transform="translate(426,123)"/>
<path d="M0 0 C2.5625 0.3125 2.5625 0.3125 4.17797852 1.39331055 C7.4947741 5.99097059 6.44151232 13.56561922 6.5 19.125 C6.51477386 20.25589554 6.51477386 20.25589554 6.52984619 21.40963745 C6.56760129 30.27816716 6.5441716 38.20895149 -0.0625 44.875 C-2.12681612 46.77903939 -4.25934521 48.5341862 -6.4375 50.3125 C-8.30843073 52.7707761 -8.30843073 52.7707761 -9.75 55.125 C-11.91768266 58.12888071 -12.33892054 58.28292616 -16.1875 59.4375 C-19.4375 59.3125 -19.4375 59.3125 -21.4375 57.3125 C-22.04788878 54.20089405 -22.00315338 52.19063409 -20.25927734 49.48339844 C-18.61307684 47.48116521 -16.89754267 45.5787145 -15.125 43.6875 C-13.9404918 42.38364266 -12.75687032 41.07897912 -11.57421875 39.7734375 C-11.04530029 39.20415527 -10.51638184 38.63487305 -9.97143555 38.04833984 C-9.46523682 37.4755127 -8.95903809 36.90268555 -8.4375 36.3125 C-7.61161377 35.42836426 -7.61161377 35.42836426 -6.76904297 34.52636719 C-4.91208065 31.43892048 -5.03553725 29.01550357 -4.99609375 25.4296875 C-4.98288589 24.77420929 -4.96967804 24.11873108 -4.95606995 23.44338989 C-4.91530242 21.35804919 -4.89353161 19.2731482 -4.875 17.1875 C-4.85121435 15.09484321 -4.82313494 13.0026006 -4.78321838 10.91018677 C-4.74772958 9.01695451 -4.72785734 7.12344882 -4.70874023 5.22998047 C-4.36681438 1.55220009 -3.72605854 0.47769981 0 0 Z " fill="#FFFDF9" transform="translate(456.4375,43.6875)"/>
<path d="M0 0 C4.1460495 1.71249871 6.76513235 4.10967484 9 8 C9.67902043 12.57961555 9.58691297 16.57905282 7.8125 20.875 C2.84937862 26.69383197 2.84937862 26.69383197 -1.3359375 27.38671875 C-5.66538467 27.57523822 -8.48008542 27.2457778 -12.4375 25.375 C-16.34279524 21.75545807 -17.80799562 18.79204088 -18.375 13.5 C-17.83531067 8.46289961 -16.23685894 5.42426181 -12.9375 1.625 C-8.64195008 -0.75126166 -4.80413406 -0.65006434 0 0 Z " fill="#E65062" transform="translate(268,336)"/>
<path d="M0 0 C4.40617281 2.16303029 7.1644597 4.41114924 9 9 C9.70599788 13.70665253 9.45316426 17.0588127 7.375 21.375 C3.58119589 25.56815191 0.08699189 27.14318371 -5.5 27.5 C-8.85054389 27.38699683 -10.80330332 26.83674749 -13.4375 24.75 C-17.69185824 20.18434725 -18.55196752 16.70050422 -18.4609375 10.546875 C-17.6951155 6.31538397 -15.21271539 3.72165267 -12 1 C-8.28763586 -0.85618207 -4.05156912 -0.44809981 0 0 Z " fill="#E65062" transform="translate(349,336)"/>
<path d="M0 0 C1.12470703 -0.03738281 2.24941406 -0.07476562 3.40820312 -0.11328125 C10.59070039 -0.18928651 14.58140739 0.29480429 19.8125 5.375 C24.03152481 11.76444177 24.77828846 19.96315066 25.8125 27.375 C22.1825 27.375 18.5525 27.375 14.8125 27.375 C14.61914062 26.38757813 14.42578125 25.40015625 14.2265625 24.3828125 C13.96617187 23.10148437 13.70578125 21.82015625 13.4375 20.5 C13.18226563 19.22382813 12.92703125 17.94765625 12.6640625 16.6328125 C12.09012104 13.31575544 12.09012104 13.31575544 9.8125 11.375 C7.53554826 11.05369834 7.53554826 11.05369834 4.91015625 11.06640625 C3.93755859 11.04126953 2.96496094 11.01613281 1.96289062 10.99023438 C-0.09173491 10.95514589 -2.14642938 10.92388094 -4.20117188 10.89648438 C-5.17505859 10.87005859 -6.14894531 10.84363281 -7.15234375 10.81640625 C-8.0455835 10.80295166 -8.93882324 10.78949707 -9.85913086 10.77563477 C-12.1875 10.375 -12.1875 10.375 -14.01391602 9.04272461 C-15.1875 7.375 -15.1875 7.375 -15 4.25 C-14.731875 3.30125 -14.46375 2.3525 -14.1875 1.375 C-10.00106606 -0.71821697 -4.59985519 0.05701229 0 0 Z " fill="#F4F4F4" transform="translate(224.1875,195.625)"/>
<path d="M0 0 C1.08946678 -0.0049926 1.08946678 -0.0049926 2.20094299 -0.01008606 C3.74015671 -0.015158 5.27938145 -0.0174943 6.81860352 -0.01733398 C9.17808096 -0.01951891 11.53708986 -0.0376669 13.89648438 -0.05664062 C15.38932131 -0.05957477 16.88216048 -0.06155942 18.375 -0.0625 C19.43756264 -0.07327827 19.43756264 -0.07327827 20.52159119 -0.08427429 C25.52508288 -0.06085462 25.52508288 -0.06085462 27.75390625 2.16796875 C28.06640625 5.16796875 28.06640625 5.16796875 27.75390625 8.16796875 C22.87943803 11.41761423 17.15246207 10.50097626 11.44775391 10.48364258 C9.26153856 10.48047979 7.07667333 10.5039578 4.890625 10.52929688 C3.50130379 10.53156969 2.11197894 10.53227345 0.72265625 10.53125 C-0.54126953 10.53423096 -1.80519531 10.53721191 -3.10742188 10.5402832 C-6.24609375 10.16796875 -6.24609375 10.16796875 -8.19726562 8.84057617 C-9.24609375 7.16796875 -9.24609375 7.16796875 -8.99609375 4.04296875 C-7.63673503 -1.16790635 -4.73499094 0.00741725 0 0 Z " fill="#F9FAFC" transform="translate(149.24609375,457.83203125)"/>
<path d="M0 0 C6.02069994 0.26758666 10.30705844 0.86574196 15 5 C17.92383888 9.38575832 18.40975447 12.77563051 18 18 C16.45016739 19.54983261 14.96331622 19.28132961 12.8125 19.375 C9.31703139 19.3416038 7.29913067 18.95827128 4.5625 16.75 C0.82238661 12.73621978 -0.26933926 10.23489194 -0.125 4.75 C-0.09792969 3.41195313 -0.09792969 3.41195313 -0.0703125 2.046875 C-0.04710937 1.37140625 -0.02390625 0.6959375 0 0 Z " fill="#FE586C" transform="translate(331,344)"/>
<path d="M0 0 C4.44546628 0.06373428 6.9059423 1.38127593 10.3125 4.3125 C13.80523717 8.52787245 13.97924296 13.03784549 14.3125 18.3125 C9.33033075 18.66696263 5.45855761 18.85427269 0.875 16.6875 C-3.16208864 12.94580809 -4.57702572 9.99723281 -4.9375 4.5 C-4.61523503 0.39112161 -4.61523503 0.39112161 0 0 Z " fill="#FE586C" transform="translate(254.6875,344.6875)"/>
<path d="M0 0 C2.69990662 1.79993774 4.5418865 3.083773 6 6 C6.43023798 9.87214182 6.31669086 11.52496371 4.125 14.8125 C1.62980912 17.38107884 0.71830363 17.90422618 -2.8125 18.375 C-6 18 -6 18 -8.8125 15.9375 C-11.43828382 12.41144744 -12.07836758 10.38858425 -12 6 C-8.68791982 0.74635558 -6.16206486 -0.60412401 0 0 Z " fill="#F6FBFE" transform="translate(205,129)"/>
<path d="M0 0 C3 2.125 3 2.125 5 5 C5 8.62442072 4.40989685 11.08375998 2.9375 14.375 C0.37902602 16.52081689 -1.70600149 16.90312167 -4.99609375 17.17578125 C-8.22508229 16.89253664 -9.83976121 15.29116235 -12 13 C-13.42662219 10.14675563 -13.31033868 8.16545451 -13 5 C-9.11365048 -0.82952428 -6.83189934 -1.62112866 0 0 Z " fill="#F7FBFE" transform="translate(167,130)"/>
<path d="M0 0 C4.99268902 1.47931526 4.99268902 1.47931526 6.375 4 C6.76774738 7.09288558 7.01077985 9.04689172 6.375 12 C3.98554251 14.73080856 2.40166021 15.76900145 -1.125 16.5625 C-4.86496182 15.72100859 -6.33353575 14.01163873 -8.625 11 C-9.25 8 -9.25 8 -8.625 5 C-5.91953265 1.14675862 -4.77773264 0 0 0 Z " fill="#F5F7F9" transform="translate(159.625,44)"/>
</svg>
